<?xml version="1.0" encoding="UTF-8" standalone="no" ?>
<!DOCTYPE svg PUBLIC "-//W3C//DTD SVG 1.1//EN" "http://www.w3.org/Graphics/SVG/1.1/DTD/svg11.dtd">
<svg xmlns="http://www.w3.org/2000/svg" xmlns:xlink="http://www.w3.org/1999/xlink" version="1.1" width="640" height="480" viewBox="0 0 640 480" xml:space="preserve">
<desc>Created with Fabric.js 3.6.3</desc>
<defs>
</defs>
<g transform="matrix(1 0 0 1 183 247)"  >
<line style="stroke: rgb(0,0,0); stroke-width: 2; stroke-dasharray: none; stroke-linecap: butt; stroke-dashoffset: 0; stroke-linejoin: miter; stroke-miterlimit: 4; fill: rgb(0,0,0); fill-rule: nonzero; opacity: 1;"  x1="0" y1="0" x2="0" y2="0" />
</g>
<g transform="matrix(1 0 0 1 328.5 239.5)"  >
<g style=""   >
		<g transform="matrix(1 0 0 1 0 0)"  >
<path style="stroke: none; stroke-width: 1; stroke-dasharray: none; stroke-linecap: butt; stroke-dashoffset: 0; stroke-linejoin: miter; stroke-miterlimit: 4; fill: rgb(0,0,0); fill-rule: nonzero; opacity: 1;"  transform=" translate(-231.5, -231.5)" d="M 395.195 67.805 C 351.471 24.08 293.336 0 231.5 0 S 111.529 24.08 67.805 67.805 S 0 169.664 0 231.5 s 24.08 119.971 67.805 163.695 S 169.664 463 231.5 463 s 119.971 -24.08 163.695 -67.805 S 463 293.336 463 231.5 S 438.92 111.529 395.195 67.805 z M 384.589 384.589 C 343.697 425.48 289.329 448 231.5 448 s -112.197 -22.52 -153.089 -63.411 C 37.52 343.697 15 289.329 15 231.5 S 37.52 119.303 78.411 78.411 C 119.303 37.52 173.671 15 231.5 15 s 112.197 22.52 153.089 63.411 C 425.48 119.303 448 173.671 448 231.5 S 425.48 343.697 384.589 384.589 z" stroke-linecap="round" />
</g>
		<g transform="matrix(1 0 0 1 0 191.67)"  >
<path style="stroke: none; stroke-width: 1; stroke-dasharray: none; stroke-linecap: butt; stroke-dashoffset: 0; stroke-linejoin: miter; stroke-miterlimit: 4; fill: rgb(0,0,0); fill-rule: nonzero; opacity: 1;"  transform=" translate(-231.5, -423.17)" d="m 246.882 415.368 c -10.156 0.839 -20.607 0.839 -30.764 0 c -4.108 -0.334 -7.751 2.728 -8.092 6.857 c -0.341 4.128 2.729 7.751 6.857 8.092 c 5.487 0.454 11.078 0.683 16.617 0.683 s 11.13 -0.229 16.616 -0.683 c 4.128 -0.341 7.198 -3.964 6.857 -8.092 c -0.34 -4.128 -3.968 -7.193 -8.091 -6.857 z" stroke-linecap="round" />
</g>
		<g transform="matrix(1 0 0 1 191.67 0)"  >
<path style="stroke: none; stroke-width: 1; stroke-dasharray: none; stroke-linecap: butt; stroke-dashoffset: 0; stroke-linejoin: miter; stroke-miterlimit: 4; fill: rgb(0,0,0); fill-rule: nonzero; opacity: 1;"  transform=" translate(-423.17, -231.5)" d="m 430.316 214.874 c -0.342 -4.129 -3.993 -7.186 -8.093 -6.856 c -4.128 0.341 -7.197 3.965 -6.856 8.093 c 0.42 5.076 0.633 10.254 0.633 15.39 c 0 5.129 -0.213 10.305 -0.632 15.383 c -0.341 4.128 2.729 7.751 6.857 8.092 c 0.21 0.017 0.418 0.026 0.626 0.026 c 3.862 0 7.143 -2.965 7.466 -6.883 c 0.454 -5.489 0.683 -11.08 0.683 -16.619 c 0 -5.546 -0.23 -11.14 -0.684 -16.626 z" stroke-linecap="round" />
</g>
		<g transform="matrix(1 0 0 1 0 -191.67)"  >
<path style="stroke: none; stroke-width: 1; stroke-dasharray: none; stroke-linecap: butt; stroke-dashoffset: 0; stroke-linejoin: miter; stroke-miterlimit: 4; fill: rgb(0,0,0); fill-rule: nonzero; opacity: 1;"  transform=" translate(-231.5, -39.83)" d="m 216.116 47.632 c 10.168 -0.839 20.6 -0.839 30.768 0 c 0.21 0.017 0.418 0.026 0.625 0.026 c 3.862 0 7.143 -2.966 7.466 -6.884 c 0.341 -4.128 -2.73 -7.75 -6.858 -8.091 c -10.984 -0.906 -22.248 -0.906 -33.232 0 c -4.128 0.34 -7.199 3.963 -6.858 8.091 c 0.338 4.128 3.974 7.192 8.089 6.858 z" stroke-linecap="round" />
</g>
		<g transform="matrix(1 0 0 1 -191.67 0)"  >
<path style="stroke: none; stroke-width: 1; stroke-dasharray: none; stroke-linecap: butt; stroke-dashoffset: 0; stroke-linejoin: miter; stroke-miterlimit: 4; fill: rgb(0,0,0); fill-rule: nonzero; opacity: 1;"  transform=" translate(-39.83, -231.5)" d="m 47.632 246.883 c -0.419 -5.078 -0.632 -10.254 -0.632 -15.383 s 0.213 -10.304 0.632 -15.381 c 0.341 -4.128 -2.729 -7.751 -6.857 -8.092 c -4.113 -0.331 -7.751 2.729 -8.092 6.857 c -0.454 5.487 -0.683 11.076 -0.683 16.616 c 0 5.539 0.229 11.13 0.683 16.617 c 0.323 3.918 3.604 6.883 7.466 6.883 c 0.207 0 0.416 -0.009 0.626 -0.026 c 4.127 -0.34 7.198 -3.963 6.857 -8.091 z" stroke-linecap="round" />
</g>
		<g transform="matrix(1 0 0 1 -135.3 135.3)"  >
<path style="stroke: none; stroke-width: 1; stroke-dasharray: none; stroke-linecap: butt; stroke-dashoffset: 0; stroke-linejoin: miter; stroke-miterlimit: 4; fill: rgb(0,0,0); fill-rule: nonzero; opacity: 1;"  transform=" translate(-96.2, -366.8)" d="m 112.362 372.392 c -3.891 -3.298 -7.7 -6.807 -11.323 -10.43 c -3.625 -3.625 -7.134 -7.434 -10.43 -11.323 c -2.677 -3.16 -7.41 -3.551 -10.57 -0.873 s -3.551 7.411 -0.873 10.571 c 3.562 4.202 7.352 8.317 11.266 12.231 c 3.913 3.913 8.028 7.703 12.231 11.266 c 1.41 1.195 3.132 1.779 4.846 1.779 c 2.128 0 4.242 -0.9 5.726 -2.65 c 2.677 -3.16 2.286 -7.893 -0.873 -10.571 z" stroke-linecap="round" />
</g>
		<g transform="matrix(1 0 0 1 135.3 135.3)"  >
<path style="stroke: none; stroke-width: 1; stroke-dasharray: none; stroke-linecap: butt; stroke-dashoffset: 0; stroke-linejoin: miter; stroke-miterlimit: 4; fill: rgb(0,0,0); fill-rule: nonzero; opacity: 1;"  transform=" translate(-366.8, -366.8)" d="m 382.967 349.758 c -3.16 -2.678 -7.894 -2.286 -10.57 0.874 c -3.295 3.889 -6.807 7.701 -10.436 11.33 c -3.624 3.625 -7.435 7.134 -11.323 10.43 c -3.16 2.678 -3.551 7.411 -0.873 10.571 c 1.483 1.75 3.598 2.651 5.726 2.651 c 1.713 0 3.436 -0.584 4.846 -1.778 c 4.202 -3.562 8.317 -7.353 12.232 -11.268 c 3.919 -3.919 7.712 -8.037 11.271 -12.239 c 2.678 -3.161 2.287 -7.893 -0.873 -10.571 z" stroke-linecap="round" />
</g>
		<g transform="matrix(1 0 0 1 135.3 -135.3)"  >
<path style="stroke: none; stroke-width: 1; stroke-dasharray: none; stroke-linecap: butt; stroke-dashoffset: 0; stroke-linejoin: miter; stroke-miterlimit: 4; fill: rgb(0,0,0); fill-rule: nonzero; opacity: 1;"  transform=" translate(-366.8, -96.2)" d="m 350.637 90.608 c 3.89 3.296 7.7 6.806 11.324 10.43 c 3.625 3.625 7.134 7.436 10.431 11.325 c 1.484 1.75 3.598 2.65 5.726 2.65 c 1.714 0 3.437 -0.584 4.846 -1.779 c 3.159 -2.678 3.55 -7.411 0.872 -10.571 c -3.563 -4.202 -7.353 -8.317 -11.267 -12.232 c -3.915 -3.915 -8.03 -7.706 -12.232 -11.267 c -3.161 -2.677 -7.894 -2.288 -10.571 0.873 c -2.679 3.161 -2.288 7.893 0.871 10.571 z" stroke-linecap="round" />
</g>
		<g transform="matrix(1 0 0 1 -135.3 -135.3)"  >
<path style="stroke: none; stroke-width: 1; stroke-dasharray: none; stroke-linecap: butt; stroke-dashoffset: 0; stroke-linejoin: miter; stroke-miterlimit: 4; fill: rgb(0,0,0); fill-rule: nonzero; opacity: 1;"  transform=" translate(-96.2, -96.2)" d="m 80.037 113.235 c 1.41 1.195 3.132 1.779 4.846 1.779 c 2.128 0 4.242 -0.9 5.726 -2.65 c 3.297 -3.89 6.806 -7.7 10.431 -11.325 c 3.623 -3.623 7.433 -7.132 11.323 -10.43 c 3.159 -2.678 3.55 -7.411 0.872 -10.571 c -2.68 -3.159 -7.412 -3.549 -10.571 -0.872 c -4.203 3.563 -8.318 7.353 -12.231 11.267 c -3.914 3.914 -7.704 8.03 -11.267 12.231 c -2.679 3.16 -2.288 7.893 0.871 10.571 z" stroke-linecap="round" />
</g>
		<g transform="matrix(1 0 0 1 73.22 176.78)"  >
<path style="stroke: none; stroke-width: 1; stroke-dasharray: none; stroke-linecap: butt; stroke-dashoffset: 0; stroke-linejoin: miter; stroke-miterlimit: 4; fill: rgb(0,0,0); fill-rule: nonzero; opacity: 1;"  transform=" translate(-304.72, -408.28)" d="m 316.074 395.486 c -4.534 2.332 -9.234 4.509 -13.969 6.47 c -4.734 1.961 -9.597 3.746 -14.453 5.303 c -3.944 1.265 -6.116 5.488 -4.851 9.433 c 1.021 3.183 3.968 5.211 7.14 5.211 c 0.759 0 1.531 -0.116 2.293 -0.36 c 5.246 -1.683 10.499 -3.61 15.611 -5.728 c 5.113 -2.118 10.189 -4.469 15.09 -6.989 c 3.684 -1.895 5.134 -6.416 3.239 -10.1 c -1.894 -3.685 -6.418 -5.134 -10.1 -3.24 z" stroke-linecap="round" />
</g>
		<g transform="matrix(1 0 0 1 176.78 -73.23)"  >
<path style="stroke: none; stroke-width: 1; stroke-dasharray: none; stroke-linecap: butt; stroke-dashoffset: 0; stroke-linejoin: miter; stroke-miterlimit: 4; fill: rgb(0,0,0); fill-rule: nonzero; opacity: 1;"  transform=" translate(-408.28, -158.27)" d="m 401.955 160.895 c 1.965 4.744 3.749 9.607 5.304 14.454 c 1.021 3.183 3.968 5.212 7.14 5.212 c 0.759 0 1.53 -0.116 2.292 -0.36 c 3.944 -1.265 6.116 -5.488 4.852 -9.432 c -1.679 -5.237 -3.606 -10.49 -5.728 -15.613 c -2.115 -5.108 -4.469 -10.188 -6.993 -15.098 c -1.895 -3.684 -6.414 -5.132 -10.1 -3.24 c -3.684 1.894 -5.135 6.416 -3.24 10.1 c 2.336 4.544 4.515 9.248 6.473 13.977 z" stroke-linecap="round" />
</g>
		<g transform="matrix(1 0 0 1 -73.22 -176.78)"  >
<path style="stroke: none; stroke-width: 1; stroke-dasharray: none; stroke-linecap: butt; stroke-dashoffset: 0; stroke-linejoin: miter; stroke-miterlimit: 4; fill: rgb(0,0,0); fill-rule: nonzero; opacity: 1;"  transform=" translate(-158.28, -54.72)" d="m 143.5 68.347 c 1.154 0 2.326 -0.268 3.424 -0.832 c 4.536 -2.333 9.236 -4.51 13.971 -6.471 c 4.737 -1.962 9.601 -3.747 14.454 -5.303 c 3.944 -1.265 6.116 -5.488 4.852 -9.432 c -1.265 -3.945 -5.491 -6.116 -9.432 -4.851 c -5.245 1.682 -10.498 3.609 -15.614 5.728 c -5.113 2.118 -10.189 4.47 -15.09 6.989 c -3.684 1.894 -5.135 6.416 -3.24 10.1 c 1.329 2.586 3.954 4.072 6.675 4.072 z" stroke-linecap="round" />
</g>
		<g transform="matrix(1 0 0 1 -176.78 73.22)"  >
<path style="stroke: none; stroke-width: 1; stroke-dasharray: none; stroke-linecap: butt; stroke-dashoffset: 0; stroke-linejoin: miter; stroke-miterlimit: 4; fill: rgb(0,0,0); fill-rule: nonzero; opacity: 1;"  transform=" translate(-54.72, -304.72)" d="m 61.045 302.105 c -1.962 -4.736 -3.746 -9.599 -5.304 -14.454 c -1.266 -3.945 -5.491 -6.114 -9.433 -4.851 c -3.944 1.266 -6.116 5.489 -4.851 9.433 c 1.683 5.245 3.609 10.497 5.728 15.611 c 2.118 5.114 4.47 10.191 6.989 15.091 c 1.33 2.586 3.955 4.071 6.676 4.071 c 1.155 0 2.327 -0.268 3.424 -0.832 c 3.684 -1.895 5.135 -6.417 3.24 -10.1 c -2.331 -4.533 -4.509 -9.234 -6.469 -13.969 z" stroke-linecap="round" />
</g>
		<g transform="matrix(1 0 0 1 -73.22 176.78)"  >
<path style="stroke: none; stroke-width: 1; stroke-dasharray: none; stroke-linecap: butt; stroke-dashoffset: 0; stroke-linejoin: miter; stroke-miterlimit: 4; fill: rgb(0,0,0); fill-rule: nonzero; opacity: 1;"  transform=" translate(-158.28, -408.28)" d="m 175.348 407.259 c -4.856 -1.558 -9.719 -3.342 -14.453 -5.303 c -4.734 -1.961 -9.435 -4.138 -13.969 -6.47 c -3.681 -1.892 -8.205 -0.445 -10.101 3.239 c -1.895 3.684 -0.444 8.205 3.239 10.1 c 4.9 2.52 9.977 4.872 15.09 6.989 c 5.112 2.118 10.365 4.045 15.611 5.728 c 0.762 0.244 1.533 0.36 2.293 0.36 c 3.172 0 6.119 -2.029 7.14 -5.211 c 1.266 -3.944 -0.906 -8.167 -4.85 -9.432 z" stroke-linecap="round" />
</g>
		<g transform="matrix(1 0 0 1 176.78 73.22)"  >
<path style="stroke: none; stroke-width: 1; stroke-dasharray: none; stroke-linecap: butt; stroke-dashoffset: 0; stroke-linejoin: miter; stroke-miterlimit: 4; fill: rgb(0,0,0); fill-rule: nonzero; opacity: 1;"  transform=" translate(-408.28, -304.72)" d="m 416.694 282.792 c -3.942 -1.265 -8.166 0.906 -9.433 4.85 c -1.563 4.87 -3.348 9.735 -5.307 14.463 c -1.96 4.735 -4.138 9.435 -6.47 13.97 c -1.895 3.684 -0.443 8.206 3.24 10.1 c 1.098 0.564 2.269 0.832 3.424 0.832 c 2.721 0 5.346 -1.485 6.676 -4.071 c 2.52 -4.9 4.871 -9.978 6.988 -15.09 c 2.115 -5.105 4.044 -10.361 5.731 -15.621 c 1.268 -3.944 -0.904 -8.167 -4.849 -9.433 z" stroke-linecap="round" />
</g>
		<g transform="matrix(1 0 0 1 73.22 -176.78)"  >
<path style="stroke: none; stroke-width: 1; stroke-dasharray: none; stroke-linecap: butt; stroke-dashoffset: 0; stroke-linejoin: miter; stroke-miterlimit: 4; fill: rgb(0,0,0); fill-rule: nonzero; opacity: 1;"  transform=" translate(-304.72, -54.72)" d="m 287.651 55.741 c 4.854 1.557 9.717 3.341 14.454 5.303 c 4.734 1.961 9.435 4.138 13.971 6.471 c 1.098 0.564 2.269 0.832 3.424 0.832 c 2.721 0 5.346 -1.485 6.676 -4.072 c 1.895 -3.684 0.443 -8.206 -3.24 -10.1 c -4.9 -2.52 -9.977 -4.871 -15.09 -6.989 c -5.116 -2.119 -10.369 -4.046 -15.614 -5.728 c -3.939 -1.264 -8.167 0.907 -9.432 4.851 s 0.907 8.168 4.851 9.432 z" stroke-linecap="round" />
</g>
		<g transform="matrix(1 0 0 1 -176.78 -73.22)"  >
<path style="stroke: none; stroke-width: 1; stroke-dasharray: none; stroke-linecap: butt; stroke-dashoffset: 0; stroke-linejoin: miter; stroke-miterlimit: 4; fill: rgb(0,0,0); fill-rule: nonzero; opacity: 1;"  transform=" translate(-54.72, -158.28)" d="m 64.274 136.825 c -3.682 -1.893 -8.204 -0.444 -10.1 3.24 c -2.52 4.901 -4.871 9.978 -6.989 15.09 c -2.121 5.123 -4.049 10.375 -5.728 15.613 c -1.265 3.944 0.907 8.167 4.852 9.432 c 0.762 0.244 1.533 0.36 2.292 0.36 c 3.172 0 6.119 -2.029 7.14 -5.212 c 1.555 -4.847 3.339 -9.709 5.304 -14.454 c 1.96 -4.733 4.137 -9.434 6.47 -13.969 c 1.894 -3.683 0.443 -8.205 -3.241 -10.1 z" stroke-linecap="round" />
</g>
</g>
</g>
<g transform="matrix(6.74 0 0 6.74 329.95 250.95)"  >
<path style="stroke: none; stroke-width: 1; stroke-dasharray: none; stroke-linecap: butt; stroke-dashoffset: 0; stroke-linejoin: miter; stroke-miterlimit: 4; fill: rgb(0,0,0); fill-rule: evenodd; opacity: 1;"  transform=" translate(-25, -25)" d="M 6.40625 16.800781 C 3.152344 20.621094 0 25.234375 0 28.902344 C 0 31.019531 1.78125 33.996094 6.132813 33.996094 C 8.484375 33.996094 10.820313 33.050781 12.648438 32.320313 C 15.730469 31.085938 49.789063 16.296875 49.789063 16.296875 C 50.117188 16.132813 50.058594 15.925781 49.644531 16.027344 C 49.480469 16.070313 12.566406 26.074219 12.566406 26.074219 C 11.855469 26.273438 11.128906 26.382813 10.421875 26.382813 C 7.230469 26.382813 5.078125 24.851563 5.078125 21.503906 C 5.078125 20.207031 5.484375 18.640625 6.40625 16.800781 Z" stroke-linecap="round" />
</g>
</svg>